<svg width="794" height="380" xmlns="http://www.w3.org/2000/svg" xml:space="preserve" overflow="hidden">
<defs><clipPath id="clip0"><rect x="0" y="323" width="794" height="380"/></clipPath></defs>
<g clip-path="url(#clip0)" transform="matrix(1 0 0 1 0 -323)">
<path d="M629.907 519.835 666.616 519.835 849.829 166.482 813.11 166.487 629.907 519.835Z" stroke="#F0EDED" stroke-width="0.145912" stroke-linecap="round" stroke-linejoin="round" stroke-miterlimit="1.5" fill="#F0EDED" fill-rule="evenodd" transform="matrix(1.03868 0 0 1 -88.9262 156.646)"/>
<path d="M703.887 481.731 849.52 481.731 830.545 518.325 684.892 518.325 703.887 481.731Z" stroke="#F0EDED" stroke-width="0.148457" stroke-linecap="round" stroke-linejoin="round" stroke-miterlimit="1.5" fill="#F0EDED" fill-rule="evenodd" transform="matrix(1 0 0 1.00291 -59.7474 156.646)"/>
<path d="M703.887 481.731 849.52 481.731 830.545 518.325 684.892 518.325 703.887 481.731Z" stroke="#F0EDED" stroke-width="0.148457" stroke-linecap="round" stroke-linejoin="round" stroke-miterlimit="1.5" fill="#F0EDED" fill-rule="evenodd" transform="matrix(1 0 0 1.00291 -116.776 -160.059)"/>
<path d="M78.4669 166.294 46.2966 179.53 181.054 519.227 218.495 519.204 78.4669 166.294Z" stroke="#F0EDED" stroke-width="0.148717" stroke-linecap="round" stroke-linejoin="round" stroke-miterlimit="1.5" fill="#F0EDED" fill-rule="evenodd" transform="matrix(1 0 0 1.00116 -46.2223 156.646)"/>
<path d="M622.724 457.233C590.344 495.165 542.188 519.232 488.455 519.232 480.357 519.232 472.386 518.685 464.577 517.627L441.991 475.219C456.536 480.328 472.173 483.106 488.455 483.106 518.689 483.106 546.703 473.524 569.623 457.233L622.724 457.233Z" stroke="#F0EDED" stroke-width="0.148717" stroke-linecap="round" stroke-linejoin="round" stroke-miterlimit="1.5" fill="#F0EDED" fill-rule="evenodd" transform="matrix(1 0 0 1.00116 -54.253 156.646)"/>
<path d="M288.74 166.294 321.99 179.962 228.991 484.887 207.844 431.542 288.74 166.294Z" stroke="#F0EDED" stroke-width="0.148717" stroke-linecap="round" stroke-linejoin="round" stroke-miterlimit="1.5" fill="#F0EDED" fill-rule="evenodd" transform="matrix(1 0 0 1.00116 -46.2223 156.646)"/>
<path d="M464.635 167.891C472.426 166.838 480.377 166.294 488.455 166.294 543.016 166.294 591.828 191.107 624.21 230.056L572.05 230.056C548.693 212.695 519.764 202.42 488.455 202.42 472.199 202.42 456.583 205.189 442.058 210.283L464.635 167.891Z" stroke="#F0EDED" stroke-width="0.148717" stroke-linecap="round" stroke-linejoin="round" stroke-miterlimit="1.5" fill="#F0EDED" fill-rule="evenodd" transform="matrix(1 0 0 1.00116 -54.253 156.646)"/>
<path d="M441.069 512.787C366.651 492.064 311.979 423.747 311.979 342.763 311.979 261.758 366.678 193.427 441.127 172.723L413.931 223.846C374.407 248.683 348.114 292.677 348.114 342.763 348.114 392.818 374.376 436.788 413.86 461.634L441.069 512.787Z" stroke="#F0EDED" stroke-width="0.148717" stroke-linecap="round" stroke-linejoin="round" stroke-miterlimit="1.5" fill="#F0EDED" fill-rule="evenodd" transform="matrix(1 0 0 1.00116 -54.253 156.646)"/>
</g>
</svg>
