<svg width="794" height="475" xmlns="http://www.w3.org/2000/svg" xmlns:xlink="http://www.w3.org/1999/xlink" xml:space="preserve" overflow="hidden"><defs><clipPath id="clip0"><rect x="0" y="9" width="794" height="475"/></clipPath></defs><g clip-path="url(#clip0)" transform="matrix(1 0 0 1 0 -9)"><path d="M628.584 518.742 665.215 518.742 848.044 166.133 811.402 166.137 628.584 518.742Z" stroke="#C8922A" stroke-width="0.145605" stroke-linecap="round" stroke-linejoin="round" stroke-miterlimit="1.5" fill="#C8922A" fill-rule="evenodd" transform="matrix(1.04087 0 0 1 -88.9262 -157.005)"/><path d="M703.887 481.731 849.52 481.731 830.545 518.325 684.892 518.325 703.887 481.731Z" stroke="#C8922A" stroke-width="0.148457" stroke-linecap="round" stroke-linejoin="round" stroke-miterlimit="1.5" fill="#C8922A" fill-rule="evenodd" transform="matrix(1 0 0 1.0008 -59.7474 -157.005)"/><path d="M703.887 481.731 849.52 481.731 830.545 518.325 684.892 518.325 703.887 481.731Z" stroke="#C8922A" stroke-width="0.148457" stroke-linecap="round" stroke-linejoin="round" stroke-miterlimit="1.5" fill="#C8922A" fill-rule="evenodd" transform="matrix(1 0 0 1.0008 -116.776 -473.044)"/><path d="M78.393 166.137 46.253 179.36 180.883 518.738 218.289 518.714 78.393 166.137Z" stroke="#C8922A" stroke-width="0.148577" stroke-linecap="round" stroke-linejoin="round" stroke-miterlimit="1.5" fill="#C8922A" fill-rule="evenodd" transform="matrix(1.00094 0 0 1 -46.2223 -157.005)"/><path d="M622.137 456.802C589.787 494.698 541.677 518.742 487.995 518.742 479.905 518.742 471.941 518.196 464.139 517.139L441.575 474.771C456.106 479.875 471.728 482.65 487.995 482.65 518.2 482.65 546.188 473.077 569.086 456.802L622.137 456.802Z" stroke="#C8922A" stroke-width="0.148577" stroke-linecap="round" stroke-linejoin="round" stroke-miterlimit="1.5" fill="#C8922A" fill-rule="evenodd" transform="matrix(1.00094 0 0 1 -54.253 -157.005)"/><path d="M288.468 166.137 321.687 179.793 228.776 484.43 207.648 431.136 288.468 166.137Z" stroke="#C8922A" stroke-width="0.148577" stroke-linecap="round" stroke-linejoin="round" stroke-miterlimit="1.5" fill="#C8922A" fill-rule="evenodd" transform="matrix(1.00094 0 0 1 -46.2223 -157.005)"/><path d="M464.197 167.733C471.981 166.681 479.924 166.137 487.995 166.137 542.504 166.137 591.27 190.927 623.621 229.839L571.511 229.839C548.176 212.495 519.274 202.229 487.995 202.229 471.754 202.229 456.153 204.996 441.642 210.085L464.197 167.733Z" stroke="#C8922A" stroke-width="0.148577" stroke-linecap="round" stroke-linejoin="round" stroke-miterlimit="1.5" fill="#C8922A" fill-rule="evenodd" transform="matrix(1.00094 0 0 1 -54.253 -157.005)"/><path d="M440.654 512.303C366.306 491.6 311.684 423.347 311.684 342.44 311.684 261.512 366.332 193.245 440.711 172.56L413.541 223.635C374.054 248.449 347.786 292.401 347.786 342.44 347.786 392.448 374.023 436.376 413.47 461.199L440.654 512.303Z" stroke="#C8922A" stroke-width="0.148577" stroke-linecap="round" stroke-linejoin="round" stroke-miterlimit="1.5" fill="#C8922A" fill-rule="evenodd" transform="matrix(1.00094 0 0 1 -54.253 -157.005)"/><text fill="#F5F0E8" font-family="Perpetua Titling MT,Perpetua Titling MT_MSFontService,sans-serif" font-weight="300" font-size="502.52" transform="matrix(0.187431 0 0 0.187254 68.4384 472)">CONSUL</text><text fill="#F5F0E8" font-family="Perpetua Titling MT,Perpetua Titling MT_MSFontService,sans-serif" font-weight="300" font-size="502.52" transform="matrix(0.187431 0 0 0.187254 453.791 472)">T</text><text fill="#F5F0E8" font-family="Perpetua Titling MT,Perpetua Titling MT_MSFontService,sans-serif" font-weight="300" font-size="502.52" transform="matrix(0.187431 0 0 0.187254 514.267 472)">O</text><text fill="#F5F0E8" font-family="Perpetua Titling MT,Perpetua Titling MT_MSFontService,sans-serif" font-weight="300" font-size="502.52" transform="matrix(0.187431 0 0 0.187254 595.762 472)">R</text><text fill="#F5F0E8" font-family="Perpetua Titling MT,Perpetua Titling MT_MSFontService,sans-serif" font-weight="300" font-size="502.52" transform="matrix(0.187431 0 0 0.187254 657.527 472)">IA</text><path d="M-2.0438-2.68797 494.928-1.35357" stroke="#2E2E2E" stroke-width="0.491058" stroke-linecap="round" stroke-linejoin="round" stroke-miterlimit="1.5" fill="none" fill-rule="evenodd" transform="matrix(1.4769 -0.00268594 0.00396565 0.999994 37.321 385.251)"/></g></svg>
